<svg width="21" height="21" viewBox="0 0 21 21" fill="none" xmlns="http://www.w3.org/2000/svg">
<path d="M9.06845 2.625C7.79412 2.625 6.5484 3.00288 5.48883 3.71087C4.42926 4.41885 3.60343 5.42513 3.11576 6.60246C2.6281 7.77979 2.5005 9.07529 2.74911 10.3251C2.99772 11.575 3.61137 12.723 4.51246 13.6241C5.41355 14.5252 6.56161 15.1389 7.81146 15.3875C9.0613 15.6361 10.3568 15.5085 11.5341 15.0208C12.7115 14.5332 13.7177 13.7073 14.4257 12.6478C15.1337 11.5882 15.5116 10.3425 15.5116 9.06814C15.5115 7.35935 14.8326 5.72057 13.6243 4.51227C12.416 3.30397 10.7772 2.62511 9.06845 2.625Z" stroke="white" stroke-width="1.3125" stroke-miterlimit="10"/>
<path d="M13.8755 13.875L18.3753 18.3748" stroke="white" stroke-width="1.3125" stroke-miterlimit="10" stroke-linecap="round"/>
</svg>
